<svg width="180" height="180" viewBox="0 0 180 180" fill="none" xmlns="http://www.w3.org/2000/svg">
  <path fill="#03390F" d="M0 0h180v180H0z"/>
  <path d="M79.387 73.657c2.686 0 4.717-1.965 4.717-4.717 0-2.751-2.031-4.717-4.717-4.717-2.686 0-4.717 1.966-4.717 4.717 0 2.752 2.03 4.717 4.717 4.717ZM18 110.541h23.716c8.648 0 15.134-6.289 15.134-14.74 0-5.83-3.21-10.679-8.124-13.038a11.3 11.3 0 0 0 1.9-6.289c0-6.748-5.634-11.792-13.037-11.792H18v45.859Zm43.174 0h8.386v-45.86h-8.386v45.86Zm60.535 0h8.385V95.67l11.269 14.871h9.893l-13.365-16.968 12.71-15.788h-9.238l-11.269 14.478V64.682h-8.385v45.859ZM27.041 80.864v-7.928h9.565c3.014 0 4.979 1.77 4.979 4.455 0 1.507-.59 2.686-1.638 3.473H27.041Zm61.78 29.677h8.386V90.429c0-3.276 2.358-5.569 5.437-5.569s5.438 2.293 5.438 5.569v20.112h8.386v-19.72c0-7.86-5.962-13.954-13.824-13.954S88.821 82.96 88.821 90.822v19.719Zm-13.627 0h8.386V81.519c0-2.424-1.77-4.193-4.193-4.193-2.424 0-4.193 1.769-4.193 4.193v29.022Zm-48.153-8.254V88.791h13.692c4.259 0 7.01 2.686 7.01 6.748s-2.751 6.748-7.01 6.748H27.041ZM157.283 111c2.686 0 4.717-1.965 4.717-4.717s-2.031-4.717-4.717-4.717c-2.686 0-4.717 1.965-4.717 4.717s2.031 4.717 4.717 4.717Z" fill="#CFFF71"/>
</svg>
